
<svg xmlns="http://www.w3.org/2000/svg" version="1.1" width="512px" height="512px" style="shape-rendering:geometricPrecision; text-rendering:geometricPrecision; image-rendering:optimizeQuality; fill-rule:evenodd; clip-rule:evenodd" xmlns:xlink="http://www.w3.org/1999/xlink">
<g><path style="opacity:1" fill="#a6b0e8" d="M 511.5,372.5 C 511.5,375.167 511.5,377.833 511.5,380.5C 493.395,390.36 474.062,394.526 453.5,393C 443.076,390.455 433.743,385.788 425.5,379C 408.93,364.612 395.597,347.778 385.5,328.5C 372.044,353.446 355.711,376.279 336.5,397C 325.879,407.282 313.879,415.616 300.5,422C 275.495,429.244 258.661,420.411 250,395.5C 244.123,371.866 247.457,349.532 260,328.5C 265.126,319.745 270.626,311.245 276.5,303C 259.39,310.222 242.723,318.555 226.5,328C 185.001,353.917 143.334,379.584 101.5,405C 85.1122,413.861 68.4455,422.194 51.5,430C 41.3348,434.875 30.6681,436.541 19.5,435C 9.22067,431.556 2.554,424.722 -0.5,414.5C -0.5,407.5 -0.5,400.5 -0.5,393.5C 3.16373,383.186 8.66373,373.852 16,365.5C 45.1486,335.667 76.6486,308.834 110.5,285C 160.529,251.987 209.863,217.987 258.5,183C 275.895,169.278 292.395,154.444 308,138.5C 314.749,130.25 320.916,121.584 326.5,112.5C 326.167,112.167 325.833,111.833 325.5,111.5C 282.897,126.794 243.897,148.294 208.5,176C 184.413,196.758 159.746,216.758 134.5,236C 117.204,248.48 98.2036,257.48 77.5,263C 59.3182,267.171 44.1516,262.337 32,248.5C 25.3851,233.726 26.3851,219.393 35,205.5C 57.2994,172.866 85.1328,146.033 118.5,125C 134.947,115.294 152.614,109.628 171.5,108C 169.167,111.667 166.167,114.667 162.5,117C 115.993,138.841 78.8266,171.341 51,214.5C 47.4058,220.177 46.4058,226.177 48,232.5C 51.1741,236.503 55.3408,238.503 60.5,238.5C 79.5427,234.977 96.5427,227.144 111.5,215C 138.535,193.478 165.202,171.478 191.5,149C 216.267,128.585 242.933,110.918 271.5,96C 292.931,85.0227 315.597,78.1894 339.5,75.5C 354.516,76.186 362.182,84.186 362.5,99.5C 360.199,114.236 355.032,127.903 347,140.5C 331.3,163.535 312.467,183.702 290.5,201C 245.896,234.972 199.896,266.972 152.5,297C 125.694,315.134 100.028,334.801 75.5,356C 64.5,365.667 54.1667,376 44.5,387C 57.1322,381.179 69.4655,374.512 81.5,367C 121.897,340.273 162.564,313.939 203.5,288C 230.86,271.654 259.527,257.987 289.5,247C 312.844,239.494 336.344,238.66 360,244.5C 361.092,231.535 362.092,218.535 363,205.5C 365.29,191.06 372.457,179.894 384.5,172C 413.947,164.433 427.113,175.933 424,206.5C 420.957,218.173 418.79,230.006 417.5,242C 418.575,257.559 423.075,272.059 431,285.5C 445.188,308.036 462.021,328.536 481.5,347C 491.398,355.74 501.398,364.24 511.5,372.5 Z M 317.5,320.5 C 321.637,320.146 325.637,320.646 329.5,322C 330.576,323.726 330.743,325.559 330,327.5C 317.797,346.706 302.463,363.039 284,376.5C 283.333,373.833 283.333,371.167 284,368.5C 289.543,348.36 300.71,332.36 317.5,320.5 Z"/></g>
</svg>
